<?xml version="1.0" encoding="us-ascii" standalone="no"?><svg xmlns="http://www.w3.org/2000/svg" xmlns:xlink="http://www.w3.org/1999/xlink" contentStyleType="text/css" height="665px" preserveAspectRatio="none" style="width:507px;height:665px;background:#FFFFFF;" version="1.1" viewBox="0 0 507 665" width="507px" zoomAndPan="magnify"><defs/><g><!--class Users--><g id="elem_Users"><rect codeLine="1" fill="#F1F1F1" height="96.8906" id="Users" rx="2.5" ry="2.5" style="stroke:#181818;stroke-width:0.5;" width="141" x="163" y="7"/><ellipse cx="209.25" cy="23" fill="#ADD1B2" rx="11" ry="11" style="stroke:#181818;stroke-width:1.0;"/><path d="M213.3594,29 L205.6406,29 L205.6406,16.6094 L213.3594,16.6094 L213.3594,18.7656 L208.0938,18.7656 L208.0938,21.4375 L212.8594,21.4375 L212.8594,23.5938 L208.0938,23.5938 L208.0938,26.8438 L213.3594,26.8438 L213.3594,29 Z " fill="#000000"/><text fill="#000000" font-family="sans-serif" font-size="14" lengthAdjust="spacing" textLength="40" x="229.75" y="27.8467">Users</text><line style="stroke:#181818;stroke-width:0.5;" x1="164" x2="303" y1="39" y2="39"/><ellipse cx="174" cy="52.6484" fill="none" rx="3" ry="3" style="stroke:#038048;stroke-width:1.0;"/><text fill="#000000" font-family="sans-serif" font-size="14" lengthAdjust="spacing" textLength="83" x="183" y="55.9951">id: INT &#171;PK&#187;</text><rect fill="none" height="6" style="stroke:#C82930;stroke-width:1.0;" width="6" x="171" y="65.9453"/><text fill="#000000" font-family="sans-serif" font-size="14" lengthAdjust="spacing" textLength="115" x="183" y="72.292">name: VARCHAR</text><rect fill="none" height="6" style="stroke:#C82930;stroke-width:1.0;" width="6" x="171" y="82.2422"/><text fill="#000000" font-family="sans-serif" font-size="14" lengthAdjust="spacing" textLength="112" x="183" y="88.5889">email: VARCHAR</text><line style="stroke:#181818;stroke-width:0.5;" x1="164" x2="303" y1="95.8906" y2="95.8906"/></g><!--class Posts--><g id="elem_Posts"><rect codeLine="7" fill="#F1F1F1" height="96.8906" id="Posts" rx="2.5" ry="2.5" style="stroke:#181818;stroke-width:0.5;" width="127" x="7" y="180.89"/><ellipse cx="47.2" cy="196.89" fill="#ADD1B2" rx="11" ry="11" style="stroke:#181818;stroke-width:1.0;"/><path d="M51.3094,202.89 L43.5906,202.89 L43.5906,190.4994 L51.3094,190.4994 L51.3094,192.6556 L46.0438,192.6556 L46.0438,195.3275 L50.8094,195.3275 L50.8094,197.4838 L46.0438,197.4838 L46.0438,200.7338 L51.3094,200.7338 L51.3094,202.89 Z " fill="#000000"/><text fill="#000000" font-family="sans-serif" font-size="14" lengthAdjust="spacing" textLength="39" x="66.8" y="201.7367">Posts</text><line style="stroke:#181818;stroke-width:0.5;" x1="8" x2="133" y1="212.89" y2="212.89"/><ellipse cx="18" cy="226.5384" fill="none" rx="3" ry="3" style="stroke:#038048;stroke-width:1.0;"/><text fill="#000000" font-family="sans-serif" font-size="14" lengthAdjust="spacing" textLength="83" x="27" y="229.8851">id: INT &#171;PK&#187;</text><rect fill="none" height="6" style="stroke:#C82930;stroke-width:1.0;" width="6" x="15" y="239.8353"/><text fill="#000000" font-family="sans-serif" font-size="14" lengthAdjust="spacing" textLength="101" x="27" y="246.182">title: VARCHAR</text><rect fill="none" height="6" style="stroke:#C82930;stroke-width:1.0;" width="6" x="15" y="256.1322"/><text fill="#000000" font-family="sans-serif" font-size="14" lengthAdjust="spacing" textLength="99" x="27" y="262.4789">content: TEXT</text><line style="stroke:#181818;stroke-width:0.5;" x1="8" x2="133" y1="269.7806" y2="269.7806"/></g><!--class Comments--><g id="elem_Comments"><rect codeLine="13" fill="#F1F1F1" height="113.1875" id="Comments" rx="2.5" ry="2.5" style="stroke:#181818;stroke-width:0.5;" width="146" x="64.5" y="354.78"/><ellipse cx="96.6" cy="370.78" fill="#ADD1B2" rx="11" ry="11" style="stroke:#181818;stroke-width:1.0;"/><path d="M100.7094,376.78 L92.9906,376.78 L92.9906,364.3894 L100.7094,364.3894 L100.7094,366.5456 L95.4438,366.5456 L95.4438,369.2175 L100.2094,369.2175 L100.2094,371.3738 L95.4438,371.3738 L95.4438,374.6238 L100.7094,374.6238 L100.7094,376.78 Z " fill="#000000"/><text fill="#000000" font-family="sans-serif" font-size="14" lengthAdjust="spacing" textLength="76" x="114.4" y="375.6267">Comments</text><line style="stroke:#181818;stroke-width:0.5;" x1="65.5" x2="209.5" y1="386.78" y2="386.78"/><ellipse cx="75.5" cy="400.4284" fill="none" rx="3" ry="3" style="stroke:#038048;stroke-width:1.0;"/><text fill="#000000" font-family="sans-serif" font-size="14" lengthAdjust="spacing" textLength="83" x="84.5" y="403.7751">id: INT &#171;PK&#187;</text><rect fill="none" height="6" style="stroke:#C82930;stroke-width:1.0;" width="6" x="72.5" y="413.7253"/><text fill="#000000" font-family="sans-serif" font-size="14" lengthAdjust="spacing" textLength="99" x="84.5" y="420.072">content: TEXT</text><rect fill="none" height="6" style="stroke:#C82930;stroke-width:1.0;" width="6" x="72.5" y="430.0222"/><text fill="#000000" font-family="sans-serif" font-size="14" lengthAdjust="spacing" textLength="120" x="84.5" y="436.3689">user_id: INT &#171;FK&#187;</text><rect fill="none" height="6" style="stroke:#C82930;stroke-width:1.0;" width="6" x="72.5" y="446.3191"/><text fill="#000000" font-family="sans-serif" font-size="14" lengthAdjust="spacing" textLength="120" x="84.5" y="452.6657">post_id: INT &#171;FK&#187;</text><line style="stroke:#181818;stroke-width:0.5;" x1="65.5" x2="209.5" y1="459.9675" y2="459.9675"/></g><!--class Replies--><g id="elem_Replies"><rect codeLine="20" fill="#F1F1F1" height="113.1875" id="Replies" rx="2.5" ry="2.5" style="stroke:#181818;stroke-width:0.5;" width="181" x="47" y="544.97"/><ellipse cx="107.75" cy="560.97" fill="#ADD1B2" rx="11" ry="11" style="stroke:#181818;stroke-width:1.0;"/><path d="M111.8594,566.97 L104.1406,566.97 L104.1406,554.5794 L111.8594,554.5794 L111.8594,556.7356 L106.5938,556.7356 L106.5938,559.4075 L111.3594,559.4075 L111.3594,561.5637 L106.5938,561.5637 L106.5938,564.8137 L111.8594,564.8137 L111.8594,566.97 Z " fill="#000000"/><text fill="#000000" font-family="sans-serif" font-size="14" lengthAdjust="spacing" textLength="51" x="128.25" y="565.8167">Replies</text><line style="stroke:#181818;stroke-width:0.5;" x1="48" x2="227" y1="576.97" y2="576.97"/><ellipse cx="58" cy="590.6184" fill="none" rx="3" ry="3" style="stroke:#038048;stroke-width:1.0;"/><text fill="#000000" font-family="sans-serif" font-size="14" lengthAdjust="spacing" textLength="83" x="67" y="593.9651">id: INT &#171;PK&#187;</text><rect fill="none" height="6" style="stroke:#C82930;stroke-width:1.0;" width="6" x="55" y="603.9153"/><text fill="#000000" font-family="sans-serif" font-size="14" lengthAdjust="spacing" textLength="99" x="67" y="610.262">content: TEXT</text><rect fill="none" height="6" style="stroke:#C82930;stroke-width:1.0;" width="6" x="55" y="620.2122"/><text fill="#000000" font-family="sans-serif" font-size="14" lengthAdjust="spacing" textLength="120" x="67" y="626.5589">user_id: INT &#171;FK&#187;</text><rect fill="none" height="6" style="stroke:#C82930;stroke-width:1.0;" width="6" x="55" y="636.5091"/><text fill="#000000" font-family="sans-serif" font-size="14" lengthAdjust="spacing" textLength="155" x="67" y="642.8557">comment_id: INT &#171;FK&#187;</text><line style="stroke:#181818;stroke-width:0.5;" x1="48" x2="227" y1="650.1575" y2="650.1575"/></g><!--class Users_Following_Users--><g id="elem_Users_Following_Users"><rect codeLine="27" fill="#F1F1F1" height="96.8906" id="Users_Following_Users" rx="2.5" ry="2.5" style="stroke:#181818;stroke-width:0.5;" width="190" x="310.5" y="180.89"/><ellipse cx="325.5" cy="196.89" fill="#ADD1B2" rx="11" ry="11" style="stroke:#181818;stroke-width:1.0;"/><path d="M329.6094,202.89 L321.8906,202.89 L321.8906,190.4994 L329.6094,190.4994 L329.6094,192.6556 L324.3438,192.6556 L324.3438,195.3275 L329.1094,195.3275 L329.1094,197.4838 L324.3438,197.4838 L324.3438,200.7338 L329.6094,200.7338 L329.6094,202.89 Z " fill="#000000"/><text fill="#000000" font-family="sans-serif" font-size="14" lengthAdjust="spacing" textLength="158" x="339.5" y="201.7367">Users_Following_Users</text><line style="stroke:#181818;stroke-width:0.5;" x1="311.5" x2="499.5" y1="212.89" y2="212.89"/><ellipse cx="321.5" cy="226.5384" fill="none" rx="3" ry="3" style="stroke:#038048;stroke-width:1.0;"/><text fill="#000000" font-family="sans-serif" font-size="14" lengthAdjust="spacing" textLength="83" x="330.5" y="229.8851">id: INT &#171;PK&#187;</text><rect fill="none" height="6" style="stroke:#C82930;stroke-width:1.0;" width="6" x="318.5" y="239.8353"/><text fill="#000000" font-family="sans-serif" font-size="14" lengthAdjust="spacing" textLength="142" x="330.5" y="246.182">follower_id: INT &#171;FK&#187;</text><rect fill="none" height="6" style="stroke:#C82930;stroke-width:1.0;" width="6" x="318.5" y="256.1322"/><text fill="#000000" font-family="sans-serif" font-size="14" lengthAdjust="spacing" textLength="146" x="330.5" y="262.4789">followed_id: INT &#171;FK&#187;</text><line style="stroke:#181818;stroke-width:0.5;" x1="311.5" x2="499.5" y1="269.7806" y2="269.7806"/></g><!--link Users to Posts--><g id="link_Users_Posts"><path codeLine="33" d="M169.5584,109.4047 C158.9084,118.9347 154.09,123.8 144.5,133.89 C130.73,148.39 127.8722,151.0461 115.9422,166.5161 " fill="none" id="Users-Posts" style="stroke:#181818;stroke-width:1.0;"/><line style="stroke:#181818;stroke-width:1.0;" x1="169.8718" x2="175.2065" y1="103.7565" y2="109.7182"/><line style="stroke:#181818;stroke-width:1.0;" x1="167.6362" x2="172.9709" y1="105.757" y2="111.7187"/><line style="stroke:#181818;stroke-width:1.0;" x1="169.5584" x2="175.52" y1="109.4047" y2="104.07"/><line style="stroke:#181818;stroke-width:1.0;" x1="109.8354" x2="109.7013" y1="174.4349" y2="184.4341"/><line style="stroke:#181818;stroke-width:1.0;" x1="109.8354" x2="100.1987" y1="174.4349" y2="177.1059"/><line style="stroke:#181818;stroke-width:1.0;" x1="109.8354" x2="104.95" y1="174.4349" y2="180.77"/><ellipse cx="113.4995" cy="169.6837" fill="none" rx="4" ry="4" style="stroke:#181818;stroke-width:1.0;"/><text fill="#000000" font-family="sans-serif" font-size="13" lengthAdjust="spacing" textLength="32" x="145.5" y="146.9569">owns</text></g><!--link Users to Comments--><g id="link_Users_Comments"><path codeLine="34" d="M218.4558,111.901 C200.8258,176.901 176.1329,267.9679 157.4029,337.0079 " fill="none" id="Users-Comments" style="stroke:#181818;stroke-width:1.0;"/><line style="stroke:#181818;stroke-width:1.0;" x1="215.6424" x2="223.3634" y1="106.9934" y2="109.0876"/><line style="stroke:#181818;stroke-width:1.0;" x1="214.8571" x2="222.5781" y1="109.8888" y2="111.983"/><line style="stroke:#181818;stroke-width:1.0;" x1="218.4558" x2="220.55" y1="111.901" y2="104.18"/><line style="stroke:#181818;stroke-width:1.0;" x1="154.7846" x2="158.4807" y1="346.6591" y2="355.951"/><line style="stroke:#181818;stroke-width:1.0;" x1="154.7846" x2="146.8993" y1="346.6591" y2="352.809"/><line style="stroke:#181818;stroke-width:1.0;" x1="154.7846" x2="152.69" y1="346.6591" y2="354.38"/><ellipse cx="156.3556" cy="340.8684" fill="none" rx="4" ry="4" style="stroke:#181818;stroke-width:1.0;"/><text fill="#000000" font-family="sans-serif" font-size="13" lengthAdjust="spacing" textLength="69" x="201.5" y="233.9069">comments</text></g><!--link Posts to Comments--><g id="link_Posts_Comments"><path codeLine="35" d="M91.0693,285.608 C99.7893,309.048 101.2836,313.0597 110.3836,337.5197 " fill="none" id="Posts-Comments" style="stroke:#181818;stroke-width:1.0;"/><line style="stroke:#181818;stroke-width:1.0;" x1="85.9257" x2="93.4237" y1="283.2537" y2="280.4643"/><line style="stroke:#181818;stroke-width:1.0;" x1="86.9717" x2="94.4697" y1="286.0654" y2="283.276"/><line style="stroke:#181818;stroke-width:1.0;" x1="91.0693" x2="88.28" y1="285.608" y2="278.11"/><line style="stroke:#181818;stroke-width:1.0;" x1="113.8705" x2="122.2834" y1="346.8921" y2="352.2979"/><line style="stroke:#181818;stroke-width:1.0;" x1="113.8705" x2="111.0366" y1="346.8921" y2="356.4821"/><line style="stroke:#181818;stroke-width:1.0;" x1="113.8705" x2="116.66" y1="346.8921" y2="354.39"/><ellipse cx="111.7784" cy="341.2686" fill="none" rx="4" ry="4" style="stroke:#181818;stroke-width:1.0;"/><text fill="#000000" font-family="sans-serif" font-size="13" lengthAdjust="spacing" textLength="23" x="105.5" y="320.8469">has</text></g><!--link Comments to Replies--><g id="link_Comments_Replies"><path codeLine="36" d="M137.5,476.33 C137.5,500.38 137.5,502.44 137.5,526.5 " fill="none" id="Comments-Replies" style="stroke:#181818;stroke-width:1.0;"/><line style="stroke:#181818;stroke-width:1.0;" x1="133.5" x2="141.5" y1="472.33" y2="472.33"/><line style="stroke:#181818;stroke-width:1.0;" x1="133.5" x2="141.5" y1="475.33" y2="475.33"/><line style="stroke:#181818;stroke-width:1.0;" x1="137.5" x2="137.5" y1="476.33" y2="468.33"/><line style="stroke:#181818;stroke-width:1.0;" x1="137.5" x2="143.5" y1="536.5" y2="544.5"/><line style="stroke:#181818;stroke-width:1.0;" x1="137.5" x2="131.5" y1="536.5" y2="544.5"/><line style="stroke:#181818;stroke-width:1.0;" x1="137.5" x2="137.5" y1="536.5" y2="544.5"/><ellipse cx="137.5" cy="530.5" fill="none" rx="4" ry="4" style="stroke:#181818;stroke-width:1.0;"/><text fill="#000000" font-family="sans-serif" font-size="13" lengthAdjust="spacing" textLength="23" x="138.5" y="511.0369">has</text></g><!--link Users to Users_Following_Users--><g id="link_Users_Users_Following_Users"><path codeLine="37" d="M269.5432,110.686 C280.8432,126.336 289.58,136.81 303.5,150.89 C313.66,161.17 311.1796,159.9814 322.7896,169.2614 " fill="none" id="Users-Users_Following_Users" style="stroke:#181818;stroke-width:1.0;"/><line style="stroke:#181818;stroke-width:1.0;" x1="263.9586" x2="270.4446" y1="109.7846" y2="105.1014"/><line style="stroke:#181818;stroke-width:1.0;" x1="265.7148" x2="272.2008" y1="112.2168" y2="107.5336"/><line style="stroke:#181818;stroke-width:1.0;" x1="269.5432" x2="264.86" y1="110.686" y2="104.2"/><line style="stroke:#181818;stroke-width:1.0;" x1="330.6009" x2="340.5962" y1="175.5051" y2="175.8132"/><line style="stroke:#181818;stroke-width:1.0;" x1="330.6009" x2="333.1038" y1="175.5051" y2="185.1868"/><line style="stroke:#181818;stroke-width:1.0;" x1="330.6009" x2="336.85" y1="175.5051" y2="180.5"/><ellipse cx="325.9142" cy="171.7589" fill="none" rx="4" ry="4" style="stroke:#181818;stroke-width:1.0;"/><text fill="#000000" font-family="sans-serif" font-size="13" lengthAdjust="spacing" textLength="42" x="304.5" y="146.9569">follows</text></g><!--link Users to Users_Following_Users--><g id="link_Users_Users_Following_Users"><path codeLine="38" d="M311.1239,99.7113 C327.7539,110.8113 337.9,119.44 351.5,133.89 C364.31,147.52 366.7214,148.9003 375.3714,164.8803 " fill="none" id="Users-Users_Following_Users-1" style="stroke:#181818;stroke-width:1.0;"/><line style="stroke:#181818;stroke-width:1.0;" x1="305.5763" x2="310.0176" y1="100.8176" y2="94.1637"/><line style="stroke:#181818;stroke-width:1.0;" x1="308.0715" x2="312.5128" y1="102.4831" y2="95.8292"/><line style="stroke:#181818;stroke-width:1.0;" x1="311.1239" x2="304.47" y1="99.7113" y2="95.27"/><line style="stroke:#181818;stroke-width:1.0;" x1="380.1317" x2="389.2166" y1="173.6746" y2="177.8538"/><line style="stroke:#181818;stroke-width:1.0;" x1="380.1317" x2="378.6634" y1="173.6746" y2="183.5662"/><line style="stroke:#181818;stroke-width:1.0;" x1="380.1317" x2="383.94" y1="173.6746" y2="180.71"/><ellipse cx="377.2755" cy="168.398" fill="none" rx="4" ry="4" style="stroke:#181818;stroke-width:1.0;"/><text fill="#000000" font-family="sans-serif" font-size="13" lengthAdjust="spacing" textLength="42" x="365.5" y="146.9569">follows</text></g><!--SRC=[hL7T2e8m6BtVKtptuGiC4IAI8WWHY-v4TDLWFzACYEpT6svgfc91kzhEEJld-o6YeCKTTefS53mGw3C3cc5ORoDmtM3ZUHNeW4WumR2VXulLFBGOuGbbBVX4Y1Y_GAfYma_hMCymbQBG5XYYvI5wyrj8plLrmhBxss1NtLdSglrMdUiQFvasCIGve-IlWQbfOZopsaBiIyRaZOfJ_CLMZfLuBD6osK2ayIvBnv4FkouCyYPKbsa6Z-lo5JBglk2SADGyBLsFqR0Tw-5kiItwD_4B]--></g></svg>